# Blender v2.92.0 OBJ File: ''
# www.blender.org
mtllib p1.mtl
o Cube_Cube.014
v -3.000000 -0.001001 3.000000
v -3.000000 0.000999 3.000000
v -3.000000 0.001001 -3.000000
v -3.000000 -0.000999 -3.000000
v 3.000000 0.001001 -3.000000
v 3.000000 -0.000999 -3.000000
v 3.000000 0.000999 3.000000
v 3.000000 -0.001001 3.000000
v 0.260053 0.001000 -0.643654
v 0.260053 -0.001000 -0.643654
v 0.357541 -0.001000 -0.595048
v 0.357541 0.001000 -0.595048
v 0.455438 -0.001000 0.523921
v 0.367871 -0.001000 0.588717
v 0.367871 0.001000 0.588717
v 0.455438 0.001000 0.523921
v -0.673581 0.001000 0.167942
v -0.673581 -0.001000 0.167942
v -0.691562 -0.001000 0.060504
v -0.691562 0.001000 0.060504
v 0.156162 0.001000 -0.676410
v 0.156162 -0.001000 -0.676410
v 0.531790 0.001000 0.446225
v 0.531790 -0.001000 0.446225
v -0.639018 0.001000 0.271247
v -0.639018 -0.001000 0.271247
v 0.048425 0.001000 -0.692511
v 0.048425 -0.001000 -0.692511
v 0.595048 -0.001000 0.357540
v 0.595048 0.001000 0.357540
v -0.588717 0.001000 0.367871
v -0.588717 -0.001000 0.367871
v -0.060504 0.001000 -0.691562
v -0.060504 -0.001000 -0.691562
v 0.643654 -0.001000 0.260053
v 0.643654 0.001000 0.260053
v -0.523922 0.001000 0.455438
v -0.523922 -0.001000 0.455438
v -0.167944 0.001000 -0.673582
v -0.167944 -0.001000 -0.673582
v 0.676410 -0.001000 0.156162
v 0.676410 0.001000 0.156162
v -0.446225 0.001000 0.531790
v -0.446225 -0.001000 0.531790
v -0.271246 0.001000 -0.639017
v -0.271246 -0.001000 -0.639017
v 0.692512 -0.001000 0.048425
v 0.692512 0.001000 0.048425
v -0.357541 -0.001000 0.595048
v -0.357541 0.001000 0.595048
v -0.367871 0.001000 -0.588717
v -0.367871 -0.001000 -0.588717
v 0.691562 0.001000 -0.060504
v 0.691562 -0.001000 -0.060504
v -0.260053 0.001000 0.643654
v -0.260053 -0.001000 0.643654
v -0.455438 0.001000 -0.523921
v -0.455438 -0.001000 -0.523921
v 0.673581 -0.001000 -0.167943
v 0.673581 0.001000 -0.167943
v -0.156162 -0.001000 0.676410
v -0.156162 0.001000 0.676410
v -0.531790 0.001000 -0.446225
v -0.531790 -0.001000 -0.446225
v 0.639018 -0.001000 -0.271247
v 0.639018 0.001000 -0.271247
v -0.048425 -0.001000 0.692511
v -0.048425 0.001000 0.692511
v -0.595048 0.001000 -0.357540
v -0.595048 -0.001000 -0.357540
v 0.588717 -0.001000 -0.367871
v 0.588717 0.001000 -0.367871
v 0.060504 -0.001000 0.691562
v 0.060504 0.001000 0.691562
v -0.643654 0.001000 -0.260053
v -0.643654 -0.001000 -0.260053
v 0.523922 -0.001000 -0.455438
v 0.523922 0.001000 -0.455438
v 0.167944 -0.001000 0.673582
v 0.167944 0.001000 0.673582
v -0.676410 0.001000 -0.156162
v -0.676410 -0.001000 -0.156162
v 0.446225 0.001000 -0.531790
v 0.446225 -0.001000 -0.531790
v 0.271246 -0.001000 0.639017
v 0.271246 0.001000 0.639017
v -0.692512 0.001000 -0.048425
v -0.692512 -0.001000 -0.048425
vt 0.375000 0.000000
vt 0.625000 0.000000
vt 0.625000 0.250000
vt 0.375000 0.250000
vt 0.625000 0.500000
vt 0.375000 0.500000
vt 0.625000 0.750000
vt 0.375000 0.750000
vt 0.625000 1.000000
vt 0.375000 1.000000
vt 0.000000 0.000000
vt 0.000000 0.000000
vt 0.000000 0.000000
vt 0.000000 0.000000
vt 0.000000 0.000000
vt 0.000000 0.000000
vt 0.000000 0.000000
vt 0.000000 0.000000
vt 0.000000 0.000000
vt 0.000000 0.000000
vt 0.000000 0.000000
vt 0.000000 0.000000
vt 0.000000 0.000000
vt 0.000000 0.000000
vt 0.000000 0.000000
vt 0.000000 0.000000
vt 0.000000 0.000000
vt 0.000000 0.000000
vt 0.000000 0.000000
vt 0.000000 0.000000
vt 0.000000 0.000000
vt 0.000000 0.000000
vt 0.000000 0.000000
vt 0.000000 0.000000
vt 0.000000 0.000000
vt 0.000000 0.000000
vt 0.000000 0.000000
vt 0.000000 0.000000
vt 0.000000 0.000000
vt 0.000000 0.000000
vt 0.000000 0.000000
vt 0.000000 0.000000
vt 0.000000 0.000000
vt 0.000000 0.000000
vt 0.000000 0.000000
vt 0.000000 0.000000
vt 0.000000 0.000000
vt 0.000000 0.000000
vt 0.000000 0.000000
vt 0.000000 0.000000
vt 0.000000 0.000000
vt 0.000000 0.000000
vt 0.000000 0.000000
vt 0.000000 0.000000
vt 0.000000 0.000000
vt 0.000000 0.000000
vt 0.000000 0.000000
vt 0.000000 0.000000
vt 0.000000 0.000000
vt 0.000000 0.000000
vt 0.000000 0.000000
vt 0.000000 0.000000
vt 0.000000 0.000000
vt 0.000000 0.000000
vt 0.000000 0.000000
vt 0.000000 0.000000
vt 0.000000 0.000000
vt 0.000000 0.000000
vt 0.000000 0.000000
vt 0.000000 0.000000
vt 0.000000 0.000000
vt 0.000000 0.000000
vt 0.000000 0.000000
vt 0.000000 0.000000
vt 0.000000 0.000000
vt 0.000000 0.000000
vt 0.000000 0.000000
vt 0.000000 0.000000
vt 0.000000 0.000000
vt 0.000000 0.000000
vt 0.000000 0.000000
vt 0.000000 0.000000
vt 0.000000 0.000000
vt 0.000000 0.000000
vt 0.000000 0.000000
vt 0.000000 0.000000
vt 0.000000 0.000000
vt 0.000000 0.000000
vt 0.000000 0.000000
vt 0.000000 0.000000
vt 0.271830 0.606023
vt 0.268977 0.646830
vt 0.272158 0.643593
vt 0.274794 0.639897
vt 0.276819 0.635836
vt 0.278184 0.631507
vt 0.278855 0.627018
vt 0.278815 0.622479
vt 0.278066 0.618002
vt 0.276626 0.613698
vt 0.274530 0.609672
vt 0.125000 0.750000
vt 0.125000 0.500000
vt 0.268593 0.602842
vt 0.264898 0.600206
vt 0.260836 0.598181
vt 0.256507 0.596816
vt 0.252018 0.596145
vt 0.247479 0.596185
vt 0.243002 0.596934
vt 0.238698 0.598374
vt 0.234672 0.600470
vt 0.231023 0.603170
vt 0.227842 0.606407
vt 0.225206 0.610102
vt 0.223181 0.614164
vt 0.221816 0.618493
vt 0.221145 0.622982
vt 0.221185 0.627521
vt 0.221934 0.631998
vt 0.223374 0.636302
vt 0.225470 0.640328
vt 0.228170 0.643977
vt 0.231407 0.647158
vt 0.235102 0.649794
vt 0.239164 0.651819
vt 0.243493 0.653184
vt 0.247982 0.653855
vt 0.252521 0.653815
vt 0.256998 0.653066
vt 0.261302 0.651626
vt 0.265328 0.649530
vt 0.728170 0.606023
vt 0.875000 0.500000
vt 0.875000 0.750000
vt 0.731023 0.646830
vt 0.734672 0.649530
vt 0.738698 0.651626
vt 0.743002 0.653066
vt 0.747479 0.653815
vt 0.752018 0.653855
vt 0.756507 0.653184
vt 0.760836 0.651819
vt 0.764898 0.649794
vt 0.768593 0.647158
vt 0.771830 0.643977
vt 0.774530 0.640328
vt 0.776626 0.636302
vt 0.778066 0.631998
vt 0.778815 0.627521
vt 0.778855 0.622982
vt 0.778184 0.618493
vt 0.776819 0.614164
vt 0.774794 0.610102
vt 0.772158 0.606407
vt 0.768977 0.603170
vt 0.765328 0.600470
vt 0.761302 0.598374
vt 0.756998 0.596934
vt 0.752521 0.596185
vt 0.747982 0.596145
vt 0.743493 0.596816
vt 0.739164 0.598181
vt 0.735102 0.600206
vt 0.731407 0.602842
vt 0.725470 0.609672
vt 0.723374 0.613698
vt 0.721934 0.618002
vt 0.721185 0.622479
vt 0.721145 0.627018
vt 0.721816 0.631507
vt 0.723181 0.635836
vt 0.725206 0.639898
vt 0.727842 0.643593
vn -1.0000 0.0000 0.0000
vn 0.0000 0.0000 -1.0000
vn 1.0000 0.0000 0.0000
vn 0.0000 0.0000 1.0000
vn -0.4462 0.0000 0.8949
vn -0.5948 0.0000 -0.8039
vn 0.9863 0.0000 -0.1651
vn -0.3007 0.0000 0.9537
vn -0.7133 0.0000 -0.7009
vn 0.9483 0.0000 -0.3173
vn -0.1478 0.0000 0.9890
vn -0.8141 0.0000 -0.5807
vn 0.8870 0.0000 -0.4618
vn 0.0087 0.0000 1.0000
vn -0.8949 0.0000 -0.4462
vn 0.8039 0.0000 -0.5948
vn 0.1650 0.0000 0.9863
vn -0.9537 0.0000 -0.3007
vn 0.7009 0.0000 -0.7132
vn 0.3173 0.0000 0.9483
vn -0.9890 0.0000 -0.1478
vn 0.5807 0.0000 -0.8141
vn 0.4618 0.0000 0.8870
vn -1.0000 0.0000 0.0087
vn 0.4462 0.0000 -0.8949
vn 0.5948 0.0000 0.8039
vn -0.9863 0.0000 0.1651
vn 0.3007 0.0000 -0.9537
vn 0.7133 0.0000 0.7009
vn -0.9483 0.0000 0.3173
vn 0.1478 0.0000 -0.9890
vn 0.8141 0.0000 0.5807
vn -0.8870 0.0000 0.4618
vn -0.0087 0.0000 -1.0000
vn 0.8949 0.0000 0.4462
vn -0.8039 0.0000 0.5948
vn -0.1650 0.0000 -0.9863
vn 0.9537 0.0000 0.3007
vn -0.7009 0.0000 0.7133
vn -0.3173 0.0000 -0.9483
vn 0.9890 0.0000 0.1478
vn -0.5807 0.0000 0.8141
vn -0.4618 0.0000 -0.8870
vn 1.0000 0.0000 -0.0087
vn -0.0000 -1.0000 -0.0000
vn 0.0000 1.0000 0.0000
usemtl None.013
s 1
f 1/1/1 2/2/1 3/3/1 4/4/1
f 4/4/2 3/3/2 5/5/2 6/6/2
f 6/6/3 5/5/3 7/7/3 8/8/3
f 8/8/4 7/7/4 2/9/4 1/10/4
f 9/11/5 10/12/5 11/13/5 12/14/5
f 13/15/6 14/16/6 15/17/6 16/18/6
f 17/19/7 18/20/7 19/21/7 20/22/7
f 21/23/8 22/24/8 10/12/8 9/11/8
f 13/15/9 16/18/9 23/25/9 24/26/9
f 25/27/10 26/28/10 18/20/10 17/19/10
f 27/29/11 28/30/11 22/24/11 21/23/11
f 29/31/12 24/26/12 23/25/12 30/32/12
f 31/33/13 32/34/13 26/28/13 25/27/13
f 33/35/14 34/36/14 28/30/14 27/29/14
f 35/37/15 29/31/15 30/32/15 36/38/15
f 37/39/16 38/40/16 32/34/16 31/33/16
f 39/41/17 40/42/17 34/36/17 33/35/17
f 41/43/18 35/37/18 36/38/18 42/44/18
f 37/39/19 43/45/19 44/46/19 38/40/19
f 45/47/20 46/48/20 40/42/20 39/41/20
f 47/49/21 41/43/21 42/44/21 48/50/21
f 49/51/22 44/46/22 43/45/22 50/52/22
f 46/48/23 45/47/23 51/53/23 52/54/23
f 53/55/24 54/56/24 47/49/24 48/50/24
f 55/57/25 56/58/25 49/51/25 50/52/25
f 57/59/26 58/60/26 52/54/26 51/53/26
f 59/61/27 54/56/27 53/55/27 60/62/27
f 61/63/28 56/58/28 55/57/28 62/64/28
f 63/65/29 64/66/29 58/60/29 57/59/29
f 65/67/30 59/61/30 60/62/30 66/68/30
f 67/69/31 61/63/31 62/64/31 68/70/31
f 69/71/32 70/72/32 64/66/32 63/65/32
f 71/73/33 65/67/33 66/68/33 72/74/33
f 73/75/34 67/69/34 68/70/34 74/76/34
f 75/77/35 76/78/35 70/72/35 69/71/35
f 77/79/36 71/73/36 72/74/36 78/80/36
f 79/81/37 73/75/37 74/76/37 80/82/37
f 81/83/38 82/84/38 76/78/38 75/77/38
f 77/79/39 78/80/39 83/85/39 84/86/39
f 85/87/40 79/81/40 80/82/40 86/88/40
f 87/89/41 88/90/41 82/84/41 81/83/41
f 84/86/42 83/85/42 12/14/42 11/13/42
f 15/17/43 14/16/43 85/87/43 86/88/43
f 88/90/44 87/89/44 20/22/44 19/21/44
f 77/91/45 6/6/45 8/8/45 13/92/45 24/93/45 29/94/45 35/95/45 41/96/45 47/97/45 54/98/45 59/99/45 65/100/45 71/101/45
f 13/92/45 8/8/45 1/102/45 4/103/45 6/6/45 77/91/45 84/104/45 11/105/45 10/106/45 22/107/45 28/108/45 34/109/45 40/110/45 46/111/45 52/112/45 58/113/45 64/114/45 70/115/45 76/116/45 82/117/45 88/118/45 19/119/45 18/120/45 26/121/45 32/122/45 38/123/45 44/124/45 49/125/45 56/126/45 61/127/45 67/128/45 73/129/45 79/130/45 85/131/45 14/132/45
f 78/133/46 5/5/46 3/134/46 2/135/46 7/7/46 16/136/46 15/137/46 86/138/46 80/139/46 74/140/46 68/141/46 62/142/46 55/143/46 50/144/46 43/145/46 37/146/46 31/147/46 25/148/46 17/149/46 20/150/46 87/151/46 81/152/46 75/153/46 69/154/46 63/155/46 57/156/46 51/157/46 45/158/46 39/159/46 33/160/46 27/161/46 21/162/46 9/163/46 12/164/46 83/165/46
f 16/136/46 7/7/46 5/5/46 78/133/46 72/166/46 66/167/46 60/168/46 53/169/46 48/170/46 42/171/46 36/172/46 30/173/46 23/174/46
