# Blender v2.92.0 OBJ File: ''
# www.blender.org
mtllib p8.mtl
o Cube_Cube.021
v -3.000000 -0.001001 3.000000
v -3.000000 0.000999 3.000000
v -3.000000 0.001001 -3.000000
v -3.000000 -0.000999 -3.000000
v 3.000000 0.001001 -3.000000
v 3.000000 -0.000999 -3.000000
v 3.000000 0.000999 3.000000
v 3.000000 -0.001001 3.000000
v -1.739946 0.001000 1.356346
v -1.739946 -0.001000 1.356346
v -1.642459 -0.001000 1.404952
v -1.642459 0.001000 1.404952
v -1.544562 -0.001001 2.523921
v -1.632128 -0.001001 2.588717
v -1.632128 0.000999 2.588717
v -1.544562 0.000999 2.523921
v -2.673582 0.000999 2.167943
v -2.673582 -0.001001 2.167943
v -2.691561 -0.001001 2.060504
v -2.691561 0.000999 2.060504
v -1.843837 0.001000 1.323589
v -1.843837 -0.001000 1.323589
v -1.468210 -0.001001 2.446224
v -1.468210 0.000999 2.446224
v -2.639017 0.000999 2.271246
v -2.639017 -0.001001 2.271246
v -1.951576 0.001000 1.307488
v -1.951576 -0.001000 1.307488
v -1.404952 -0.001001 2.357541
v -1.404952 0.000999 2.357541
v -2.588717 0.000999 2.367872
v -2.588717 -0.001001 2.367872
v -2.060503 0.001000 1.308439
v -2.060503 -0.001000 1.308439
v -1.356346 -0.001001 2.260052
v -1.356346 0.000999 2.260052
v -2.523921 0.000999 2.455437
v -2.523921 -0.001001 2.455437
v -2.167943 0.001000 1.326417
v -2.167943 -0.001000 1.326417
v -1.323589 -0.001001 2.156162
v -1.323589 0.000999 2.156162
v -2.485075 0.000999 2.493612
v -2.446225 0.000999 2.531790
v -2.446225 -0.001001 2.531790
v -2.489381 -0.001001 2.489381
v -2.271246 0.001000 1.360983
v -2.271246 -0.001000 1.360983
v -1.307487 -0.001001 2.048425
v -1.307487 0.000999 2.048425
v -2.357541 -0.001001 2.595047
v -2.357541 0.000999 2.595047
v -2.367872 0.001000 1.411283
v -2.367872 -0.001000 1.411283
v -1.308439 0.000999 1.939496
v -1.308439 -0.001001 1.939496
v -2.260053 0.000999 2.643653
v -2.260053 -0.001001 2.643653
v -2.455438 0.001000 1.476079
v -2.455438 -0.001000 1.476079
v -1.326418 -0.001001 1.832057
v -1.326418 0.000999 1.832057
v -2.156162 -0.001001 2.676410
v -2.156162 0.000999 2.676410
v -2.531790 0.000999 1.553775
v -2.531790 -0.001001 1.553775
v -1.360983 -0.001001 1.728753
v -1.360983 0.000999 1.728753
v -2.048424 -0.001001 2.692512
v -2.048424 0.000999 2.692512
v -2.595047 0.000999 1.642460
v -2.595047 -0.001001 1.642460
v -1.411283 -0.001001 1.632128
v -1.411283 0.000999 1.632128
v -1.939497 -0.001001 2.691561
v -1.939497 0.000999 2.691561
v -2.643653 0.000999 1.739947
v -2.643653 -0.001001 1.739947
v -1.476078 -0.001001 1.544562
v -1.476078 0.000999 1.544562
v -1.832057 -0.001001 2.673582
v -1.832057 0.000999 2.673582
v -2.676410 0.000999 1.843838
v -2.676410 -0.001001 1.843838
v -1.553774 0.001000 1.468210
v -1.553774 -0.001000 1.468210
v -1.728753 -0.001001 2.639017
v -1.728753 0.000999 2.639017
v -2.692512 0.000999 1.951575
v -2.692512 -0.001001 1.951575
vt 0.375000 0.000000
vt 0.625000 0.000000
vt 0.625000 0.250000
vt 0.375000 0.250000
vt 0.625000 0.500000
vt 0.375000 0.500000
vt 0.625000 0.750000
vt 0.375000 0.750000
vt 0.625000 1.000000
vt 0.375000 1.000000
vt 0.000000 0.000000
vt 0.000000 0.000000
vt 0.000000 0.000000
vt 0.000000 0.000000
vt 0.000000 0.000000
vt 0.000000 0.000000
vt 0.000000 0.000000
vt 0.000000 0.000000
vt 0.000000 0.000000
vt 0.000000 0.000000
vt 0.000000 0.000000
vt 0.000000 0.000000
vt 0.000000 0.000000
vt 0.000000 0.000000
vt 0.000000 0.000000
vt 0.000000 0.000000
vt 0.000000 0.000000
vt 0.000000 0.000000
vt 0.000000 0.000000
vt 0.000000 0.000000
vt 0.000000 0.000000
vt 0.000000 0.000000
vt 0.000000 0.000000
vt 0.000000 0.000000
vt 0.000000 0.000000
vt 0.000000 0.000000
vt 0.000000 0.000000
vt 0.000000 0.000000
vt 0.000000 0.000000
vt 0.000000 0.000000
vt 0.000000 0.000000
vt 0.000000 0.000000
vt 0.000000 0.000000
vt 0.000000 0.000000
vt 0.000000 0.000000
vt 0.000000 0.000000
vt 0.000000 0.000000
vt 0.000000 0.000000
vt 0.000000 0.000000
vt 0.000000 0.000000
vt 0.000000 0.000000
vt 0.000000 0.000000
vt 0.000000 0.000000
vt 0.000000 0.000000
vt 0.000000 0.000000
vt 0.000000 0.000000
vt 0.000000 0.000000
vt 0.000000 0.000000
vt 0.000000 0.000000
vt 0.000000 0.000000
vt 0.000000 0.000000
vt 0.000000 0.000000
vt 0.000000 0.000000
vt 0.000000 0.000000
vt 0.000000 0.000000
vt 0.000000 0.000000
vt 0.000000 0.000000
vt 0.000000 0.000000
vt 0.000000 0.000000
vt 0.000000 0.000000
vt 0.000000 0.000000
vt 0.000000 0.000000
vt 0.000000 0.000000
vt 0.000000 0.000000
vt 0.000000 0.000000
vt 0.000000 0.000000
vt 0.000000 0.000000
vt 0.000000 0.000000
vt 0.000000 0.000000
vt 0.000000 0.000000
vt 0.000000 0.000000
vt 0.000000 0.000000
vt 0.000000 0.000000
vt 0.000000 0.000000
vt 0.000000 0.000000
vt 0.000000 0.000000
vt 0.000000 0.000000
vt 0.000000 0.000000
vt 0.000000 0.000000
vt 0.000000 0.000000
vt 0.000000 0.000000
vt 0.000000 0.000000
vt 0.144837 0.727310
vt 0.146276 0.728724
vt 0.125000 0.750000
vt 0.125000 0.500000
vt 0.194850 0.714840
vt 0.195521 0.710351
vt 0.195482 0.705812
vt 0.194733 0.701336
vt 0.193292 0.697031
vt 0.191197 0.693005
vt 0.188497 0.689357
vt 0.185259 0.686175
vt 0.181564 0.683540
vt 0.177502 0.681515
vt 0.173173 0.680150
vt 0.168684 0.679479
vt 0.164146 0.679518
vt 0.159669 0.680267
vt 0.155365 0.681708
vt 0.151339 0.683803
vt 0.147690 0.686503
vt 0.144509 0.689741
vt 0.141873 0.693436
vt 0.139848 0.697498
vt 0.138483 0.701827
vt 0.137812 0.706316
vt 0.137852 0.710854
vt 0.138601 0.715331
vt 0.140041 0.719635
vt 0.142137 0.723661
vt 0.148074 0.730491
vt 0.151769 0.733127
vt 0.155831 0.735152
vt 0.160160 0.736517
vt 0.164649 0.737188
vt 0.169188 0.737148
vt 0.173664 0.736399
vt 0.177969 0.734959
vt 0.181995 0.732863
vt 0.185643 0.730163
vt 0.188825 0.726926
vt 0.191460 0.723231
vt 0.193486 0.719169
vt 0.851926 0.730491
vt 0.853545 0.728900
vt 0.875000 0.750000
vt 0.805150 0.714840
vt 0.806514 0.719169
vt 0.808540 0.723231
vt 0.811175 0.726926
vt 0.814357 0.730163
vt 0.818005 0.732863
vt 0.822031 0.734959
vt 0.826336 0.736399
vt 0.830812 0.737148
vt 0.835351 0.737188
vt 0.839840 0.736517
vt 0.844169 0.735152
vt 0.848231 0.733127
vt 0.875000 0.500000
vt 0.855163 0.727310
vt 0.857863 0.723661
vt 0.859959 0.719635
vt 0.861399 0.715331
vt 0.862148 0.710854
vt 0.862188 0.706316
vt 0.861517 0.701827
vt 0.860152 0.697498
vt 0.858127 0.693436
vt 0.855491 0.689741
vt 0.852310 0.686503
vt 0.848661 0.683803
vt 0.844635 0.681708
vt 0.840331 0.680267
vt 0.835854 0.679518
vt 0.831316 0.679479
vt 0.826827 0.680150
vt 0.822498 0.681514
vt 0.818436 0.683540
vt 0.814741 0.686175
vt 0.811503 0.689357
vt 0.808803 0.693005
vt 0.806708 0.697031
vt 0.805267 0.701336
vt 0.804518 0.705812
vt 0.804479 0.710351
vn -1.0000 0.0000 0.0000
vn 0.0000 0.0000 -1.0000
vn 1.0000 0.0000 0.0000
vn 0.0000 0.0000 1.0000
vn -0.4462 0.0000 0.8949
vn -0.5948 0.0000 -0.8039
vn 0.9863 0.0000 -0.1651
vn -0.3007 0.0000 0.9537
vn -0.7133 0.0000 -0.7009
vn 0.9483 0.0000 -0.3173
vn -0.1478 0.0000 0.9890
vn -0.8141 0.0000 -0.5807
vn 0.8870 0.0000 -0.4618
vn 0.0087 0.0000 1.0000
vn -0.8949 0.0000 -0.4462
vn 0.8039 0.0000 -0.5948
vn 0.1650 0.0000 0.9863
vn -0.9537 0.0000 -0.3007
vn 0.7009 -0.0002 -0.7132
vn 0.3173 0.0000 0.9483
vn -0.9890 0.0000 -0.1478
vn 0.5807 0.0000 -0.8141
vn 0.4617 0.0000 0.8870
vn -1.0000 0.0000 0.0087
vn 0.4462 0.0000 -0.8949
vn 0.5948 0.0000 0.8039
vn -0.9863 0.0000 0.1651
vn 0.3007 0.0000 -0.9537
vn 0.7132 0.0000 0.7009
vn -0.9483 0.0000 0.3173
vn 0.1478 0.0000 -0.9890
vn 0.8141 0.0000 0.5807
vn -0.8870 0.0000 0.4618
vn -0.0087 0.0000 -1.0000
vn 0.8949 0.0000 0.4462
vn -0.8039 0.0000 0.5948
vn -0.1650 0.0000 -0.9863
vn 0.9537 0.0000 0.3007
vn -0.7009 0.0000 0.7132
vn -0.3173 0.0000 -0.9483
vn 0.9890 0.0000 0.1478
vn -0.5807 0.0000 0.8141
vn -0.4618 0.0000 -0.8870
vn 1.0000 0.0000 -0.0087
vn 0.0000 -1.0000 -0.0000
vn 0.0000 1.0000 0.0000
usemtl None.020
s 1
f 1/1/1 2/2/1 3/3/1 4/4/1
f 4/4/2 3/3/2 5/5/2 6/6/2
f 6/6/3 5/5/3 7/7/3 8/8/3
f 8/8/4 7/7/4 2/9/4 1/10/4
f 9/11/5 10/12/5 11/13/5 12/14/5
f 13/15/6 14/16/6 15/17/6 16/18/6
f 17/19/7 18/20/7 19/21/7 20/22/7
f 21/23/8 22/24/8 10/12/8 9/11/8
f 23/25/9 13/15/9 16/18/9 24/26/9
f 25/27/10 26/28/10 18/20/10 17/19/10
f 27/29/11 28/30/11 22/24/11 21/23/11
f 29/31/12 23/25/12 24/26/12 30/32/12
f 31/33/13 32/34/13 26/28/13 25/27/13
f 33/35/14 34/36/14 28/30/14 27/29/14
f 35/37/15 29/31/15 30/32/15 36/38/15
f 37/39/16 38/40/16 32/34/16 31/33/16
f 39/41/17 40/42/17 34/36/17 33/35/17
f 41/43/18 35/37/18 36/38/18 42/44/18
f 37/39/19 43/45/19 44/46/19 45/47/19 46/48/19 38/40/19
f 47/49/20 48/50/20 40/42/20 39/41/20
f 49/51/21 41/43/21 42/44/21 50/52/21
f 51/53/22 45/47/22 44/46/22 52/54/22
f 48/50/23 47/49/23 53/55/23 54/56/23
f 55/57/24 56/58/24 49/51/24 50/52/24
f 57/59/25 58/60/25 51/53/25 52/54/25
f 59/61/26 60/62/26 54/56/26 53/55/26
f 61/63/27 56/58/27 55/57/27 62/64/27
f 63/65/28 58/60/28 57/59/28 64/66/28
f 65/67/29 66/68/29 60/62/29 59/61/29
f 67/69/30 61/63/30 62/64/30 68/70/30
f 69/71/31 63/65/31 64/66/31 70/72/31
f 71/73/32 72/74/32 66/68/32 65/67/32
f 73/75/33 67/69/33 68/70/33 74/76/33
f 75/77/34 69/71/34 70/72/34 76/78/34
f 77/79/35 78/80/35 72/74/35 71/73/35
f 79/81/36 73/75/36 74/76/36 80/82/36
f 81/83/37 75/77/37 76/78/37 82/84/37
f 83/85/38 84/86/38 78/80/38 77/79/38
f 79/81/39 80/82/39 85/87/39 86/88/39
f 87/89/40 81/83/40 82/84/40 88/90/40
f 89/91/41 90/92/41 84/86/41 83/85/41
f 86/88/42 85/87/42 12/14/42 11/13/42
f 15/17/43 14/16/43 87/89/43 88/90/43
f 90/92/44 89/91/44 20/22/44 19/21/44
f 38/93/45 46/94/45 1/95/45 4/96/45 6/6/45 8/8/45 41/97/45 49/98/45 56/99/45 61/100/45 67/101/45 73/102/45 79/103/45 86/104/45 11/105/45 10/106/45 22/107/45 28/108/45 34/109/45 40/110/45 48/111/45 54/112/45 60/113/45 66/114/45 72/115/45 78/116/45 84/117/45 90/118/45 19/119/45 18/120/45 26/121/45 32/122/45
f 41/97/45 8/8/45 1/95/45 46/94/45 45/123/45 51/124/45 58/125/45 63/126/45 69/127/45 75/128/45 81/129/45 87/130/45 14/131/45 13/132/45 23/133/45 29/134/45 35/135/45
f 44/136/46 43/137/46 2/138/46 7/7/46 42/139/46 36/140/46 30/141/46 24/142/46 16/143/46 15/144/46 88/145/46 82/146/46 76/147/46 70/148/46 64/149/46 57/150/46 52/151/46
f 7/7/46 5/5/46 3/152/46 2/138/46 43/137/46 37/153/46 31/154/46 25/155/46 17/156/46 20/157/46 89/158/46 83/159/46 77/160/46 71/161/46 65/162/46 59/163/46 53/164/46 47/165/46 39/166/46 33/167/46 27/168/46 21/169/46 9/170/46 12/171/46 85/172/46 80/173/46 74/174/46 68/175/46 62/176/46 55/177/46 50/178/46 42/139/46
